<svg width="255" height="181" viewBox="0 0 255 181" fill="none" xmlns="http://www.w3.org/2000/svg">
<path d="M19.64 79.7685L21.0725 80.2135L19.64 79.7685ZM44.336 32.4095L43.4517 31.1978L44.336 32.4095ZM137.072 102.7L138.572 102.669L137.072 102.7ZM0.850174 169.037C0.318171 169.672 0.401693 170.618 1.03672 171.15L11.3852 179.819C12.0202 180.351 12.9663 180.268 13.4983 179.633C14.0303 178.998 13.9467 178.052 13.3117 177.52L4.1131 169.813L11.8193 160.615C12.3513 159.98 12.2678 159.034 11.6328 158.502C10.9977 157.97 10.0517 158.053 9.51966 158.688L0.850174 169.037ZM254 2C253.188 0.738572 253.187 0.739138 253.186 0.740347C253.184 0.741607 253.181 0.743457 253.177 0.745971C253.169 0.751 253.157 0.758581 253.141 0.768691C253.11 0.78891 253.063 0.819241 253 0.859477C252.875 0.939951 252.687 1.06005 252.44 1.21813C251.945 1.53431 251.21 2.00242 250.253 2.60939C248.339 3.82332 245.534 5.59259 241.973 7.81241C234.852 12.2521 224.709 18.4936 212.626 25.6985C188.455 40.1109 156.538 58.3672 125.52 73.7687C94.4451 89.1983 64.4586 101.666 44.0802 104.639C33.8048 106.139 26.509 105.139 22.585 101.529C18.7916 98.0384 17.5688 91.4922 21.0725 80.2135L18.2075 79.3236C14.6227 90.8635 15.4072 99.001 20.5537 103.737C25.5698 108.352 34.1467 109.121 44.5134 107.608C65.4193 104.557 95.7949 91.8775 126.854 76.4557C157.97 61.0057 189.96 42.706 214.162 28.2752C226.265 21.0584 236.425 14.8065 243.56 10.3582C247.128 8.134 249.94 6.36063 251.86 5.14291C252.82 4.53405 253.557 4.06409 254.055 3.74615C254.304 3.58717 254.493 3.4662 254.619 3.38487C254.683 3.3442 254.731 3.31345 254.763 3.2928C254.779 3.28248 254.791 3.27469 254.799 3.26945C254.803 3.26684 254.806 3.26483 254.808 3.26352C254.811 3.26215 254.812 3.26143 254 2ZM21.0725 80.2135C27.3408 60.0352 28.7997 45.6047 45.2203 33.6211L43.4517 31.1978C26.0129 43.9246 24.2981 59.7174 18.2075 79.3236L21.0725 80.2135ZM45.2203 33.6211C62.759 20.8215 84.9129 26.6471 103.166 41.7429C121.393 56.817 135.117 80.7066 135.572 102.731L138.572 102.669C138.094 79.5736 123.807 54.9208 105.078 39.4311C86.3748 23.9631 62.6275 17.2035 43.4517 31.1978L45.2203 33.6211ZM135.572 102.731C135.844 115.84 127.998 126.547 115.585 135.309C103.173 144.07 86.4373 150.699 69.5439 155.638C52.6718 160.572 35.7491 163.79 23.0344 165.775C16.6798 166.767 11.3824 167.451 7.67598 167.886C5.82288 168.103 4.36782 168.258 3.37752 168.359C2.88238 168.41 2.50346 168.446 2.2491 168.471C2.12192 168.483 2.02588 168.491 1.96203 168.497C1.93011 168.5 1.90623 168.502 1.89053 168.504C1.88268 168.505 1.87687 168.505 1.87313 168.505C1.87125 168.506 1.86999 168.506 1.86906 168.506C1.86831 168.506 1.86809 168.506 2 170C2.13191 171.494 2.13273 171.494 2.13406 171.494C2.13519 171.494 2.13704 171.494 2.13931 171.494C2.14385 171.493 2.15045 171.493 2.15909 171.492C2.17639 171.49 2.20187 171.488 2.23542 171.485C2.3025 171.479 2.40183 171.469 2.53235 171.457C2.79338 171.432 3.1792 171.395 3.68146 171.344C4.68595 171.241 6.15627 171.084 8.02559 170.865C11.764 170.426 17.0995 169.738 23.4972 168.739C36.2873 166.742 53.347 163.5 70.3859 158.518C87.4034 153.542 104.507 146.8 117.315 137.76C130.12 128.721 138.872 117.198 138.572 102.669L135.572 102.731Z" fill="url(#paint0_linear_126_45)"/>
<defs>
<linearGradient id="paint0_linear_126_45" x1="254" y1="2.12438" x2="88.1297" y2="147.399" gradientUnits="userSpaceOnUse">
<stop stop-color="#096A6A"/>
<stop offset="1" stop-color="#78B6B6"/>
</linearGradient>
</defs>
</svg>
