<svg width="606" height="18" viewBox="0 0 606 18" fill="none" xmlns="http://www.w3.org/2000/svg">
<path d="M10.1575 3.83488C8.99692 2.96004 7.02147 4.11002 5.50109 6.41882C3.9807 4.11002 2.00349 2.96004 0.844682 3.83488C-0.448176 4.80849 -0.233002 7.91627 1.32619 10.7736C2.24689 12.4616 3.42686 13.6644 4.50807 14.1848C4.51159 14.1883 4.51512 14.1883 4.51864 14.1918C4.59801 14.2289 4.6774 14.2712 4.75677 14.303C4.92433 14.3859 5.10246 14.4353 5.29471 14.4494C5.3635 14.4582 5.43055 14.4546 5.49934 14.4581C5.56812 14.4546 5.63338 14.4582 5.70393 14.4494C5.89442 14.4353 6.07431 14.3859 6.24187 14.303C6.31948 14.2712 6.40063 14.2306 6.48 14.1918C6.48177 14.1883 6.48704 14.1883 6.4888 14.1848H6.49058C7.57178 13.6644 8.75 12.4616 9.67246 10.7736C11.2316 7.91803 11.4486 4.80849 10.1575 3.83488Z" fill="#096A6A"/>
<path d="M21.1556 3.83511C19.9969 2.9603 18.0198 4.11024 16.5012 6.41896C14.9791 4.11024 13.0037 2.9603 11.8432 3.83511C10.5521 4.80868 10.7673 7.91635 12.3265 10.7736C13.2471 12.4615 14.4253 13.6643 15.5082 14.1846C15.5135 14.1881 15.5153 14.1881 15.5188 14.1917C15.5982 14.2287 15.6775 14.2711 15.7551 14.3028C15.9245 14.3857 16.1026 14.4351 16.2931 14.4492C16.3636 14.458 16.4306 14.4544 16.4994 14.458C16.5664 14.4544 16.6317 14.458 16.704 14.4492C16.8945 14.4351 17.0726 14.3857 17.242 14.3028C17.3196 14.2711 17.4007 14.2305 17.48 14.1917C17.4818 14.1881 17.4871 14.1881 17.4889 14.1846C18.5683 13.6643 19.7517 12.4615 20.6706 10.7736C22.2333 7.91811 22.4485 4.80868 21.1556 3.83511Z" fill="#096A6A"/>
<path d="M32.1562 3.83511C30.9975 2.9603 29.0203 4.11024 27.5 6.41896C25.9797 4.11024 24.0025 2.9603 22.8438 3.83511C21.5527 4.80868 21.7661 7.91635 23.327 10.7736C24.2495 12.4615 25.4276 13.6643 26.5088 14.1846C26.5141 14.1881 26.5158 14.1881 26.5194 14.1917C26.5987 14.2287 26.6763 14.2711 26.7557 14.3028C26.9233 14.3857 27.1031 14.4351 27.2936 14.4492C27.3642 14.458 27.433 14.4544 27.5 14.458C27.5688 14.4544 27.6323 14.458 27.7046 14.4492C27.8968 14.4351 28.0732 14.3857 28.2443 14.3028C28.3219 14.2711 28.403 14.2305 28.4806 14.1917C28.4824 14.1881 28.4877 14.1881 28.4894 14.1846C29.5706 13.6643 30.7505 12.4615 31.6712 10.7736C33.2321 7.91811 33.449 4.80868 32.1562 3.83511Z" fill="#096A6A"/>
<path d="M43.156 3.83557C41.9974 2.96085 40.0204 4.11068 38.5002 6.41917C36.98 4.11068 35.0031 2.96085 33.8444 3.83557C32.5517 4.80905 32.7669 7.91642 34.3276 10.7734C35.2464 12.4611 36.4263 13.6638 37.5091 14.1841C37.5126 14.1876 37.5162 14.1876 37.5197 14.1911C37.5991 14.2282 37.6784 14.2705 37.7578 14.3023C37.9271 14.3852 38.1052 14.4345 38.2956 14.4487C38.3662 14.4575 38.4314 14.4539 38.502 14.4574C38.569 14.4539 38.636 14.4575 38.7065 14.4487C38.897 14.4345 39.0769 14.3852 39.2462 14.3023C39.322 14.2705 39.4032 14.2299 39.4825 14.1911C39.486 14.1876 39.4896 14.1876 39.4931 14.1841H39.4949C40.5742 13.6638 41.7557 12.4611 42.6745 10.7734C44.2318 7.91818 44.4487 4.80905 43.156 3.83557Z" fill="#096A6A"/>
<path d="M54.1558 3.83441C52.9969 2.9595 51.0196 4.10958 49.499 6.41857C47.9785 4.10958 46.0029 2.9595 44.844 3.83441C43.5511 4.8081 43.768 7.91614 45.3273 10.7737C46.2463 12.4618 47.4264 13.6648 48.5077 14.1851C48.5112 14.1887 48.5165 14.1887 48.5201 14.1922C48.5994 14.2292 48.6788 14.2716 48.7564 14.3033C48.9275 14.3863 49.1057 14.4357 49.2944 14.4498C49.365 14.4586 49.432 14.455 49.499 14.4585C49.5678 14.455 49.6331 14.4586 49.7054 14.4498C49.8959 14.4357 50.0723 14.3863 50.2434 14.3033C50.3193 14.2716 50.4022 14.231 50.4816 14.1922C50.4833 14.1887 50.4868 14.1887 50.4904 14.1851H50.4921C51.5734 13.6648 52.7553 12.4618 53.6743 10.7737C55.2318 7.9179 55.4488 4.8081 54.1558 3.83441Z" fill="#096A6A"/>
<path d="M65.1566 3.83465C63.9977 2.95976 62.0204 4.10981 60.4999 6.41873C58.9795 4.10981 57.0021 2.95976 55.8433 3.83465C54.5521 4.80831 54.7673 7.91626 56.3266 10.7738C57.2456 12.4618 58.4274 13.6647 59.5086 14.1851C59.5139 14.1886 59.5174 14.1886 59.5192 14.1921C59.5986 14.2292 59.6762 14.2715 59.7573 14.3033C59.9267 14.3862 60.1048 14.4356 60.2953 14.4497C60.3659 14.4585 60.4329 14.455 60.5017 14.4585C60.5705 14.455 60.6357 14.4585 60.7081 14.4497C60.8968 14.4356 61.0767 14.3862 61.2443 14.3033C61.3237 14.2715 61.403 14.2309 61.4824 14.1921C61.4859 14.1886 61.4895 14.1886 61.493 14.1851C62.5725 13.6647 63.7561 12.4618 64.675 10.7738C66.2326 7.91802 66.4477 4.80831 65.1566 3.83465Z" fill="#096A6A"/>
<path d="M76.1566 3.83465C74.9977 2.95976 73.0204 4.10981 71.4999 6.41873C69.9795 4.10981 68.0021 2.95976 66.8433 3.83465C65.5521 4.80831 65.7673 7.91626 67.3266 10.7738C68.2456 12.4618 69.4274 13.6647 70.5086 14.1851C70.5139 14.1886 70.5174 14.1886 70.5192 14.1921C70.5986 14.2292 70.6762 14.2715 70.7573 14.3033C70.9267 14.3862 71.1048 14.4356 71.2953 14.4497C71.3659 14.4585 71.4329 14.455 71.5017 14.4585C71.5705 14.455 71.6357 14.4585 71.7081 14.4497C71.8968 14.4356 72.0767 14.3862 72.2443 14.3033C72.3237 14.2715 72.403 14.2309 72.4824 14.1921C72.4859 14.1886 72.4895 14.1886 72.493 14.1851C73.5725 13.6647 74.7561 12.4618 75.675 10.7738C77.2326 7.91802 77.4477 4.80831 76.1566 3.83465Z" fill="#096A6A"/>
<path d="M87.1566 3.83465C85.9977 2.95976 84.0204 4.10981 82.4999 6.41873C80.9795 4.10981 79.0021 2.95976 77.8433 3.83465C76.5521 4.80831 76.7673 7.91626 78.3266 10.7738C79.2456 12.4618 80.4274 13.6647 81.5086 14.1851C81.5139 14.1886 81.5174 14.1886 81.5192 14.1921C81.5986 14.2292 81.6762 14.2715 81.7573 14.3033C81.9267 14.3862 82.1048 14.4356 82.2953 14.4497C82.3659 14.4585 82.4329 14.455 82.5017 14.4585C82.5705 14.455 82.6357 14.4585 82.7081 14.4497C82.8968 14.4356 83.0767 14.3862 83.2443 14.3033C83.3237 14.2715 83.403 14.2309 83.4824 14.1921C83.4859 14.1886 83.4895 14.1886 83.493 14.1851C84.5725 13.6647 85.7561 12.4618 86.675 10.7738C88.2326 7.91802 88.4477 4.80831 87.1566 3.83465Z" fill="#096A6A"/>
<path d="M98.1566 3.83465C96.9977 2.95976 95.0204 4.10981 93.4999 6.41873C91.9795 4.10981 90.0021 2.95976 88.8433 3.83465C87.5521 4.80831 87.7673 7.91626 89.3266 10.7738C90.2456 12.4618 91.4274 13.6647 92.5086 14.1851C92.5139 14.1886 92.5174 14.1886 92.5192 14.1921C92.5986 14.2292 92.6762 14.2715 92.7573 14.3033C92.9267 14.3862 93.1048 14.4356 93.2953 14.4497C93.3659 14.4585 93.4329 14.455 93.5017 14.4585C93.5705 14.455 93.6357 14.4585 93.7081 14.4497C93.8968 14.4356 94.0767 14.3862 94.2443 14.3033C94.3237 14.2715 94.403 14.2309 94.4824 14.1921C94.4859 14.1886 94.4895 14.1886 94.493 14.1851C95.5725 13.6647 96.7561 12.4618 97.675 10.7738C99.2326 7.91802 99.4477 4.80831 98.1566 3.83465Z" fill="#096A6A"/>
<path d="M109.157 3.83465C107.998 2.95976 106.02 4.10981 104.5 6.41873C102.979 4.10981 101.002 2.95976 99.8433 3.83465C98.5521 4.80831 98.7673 7.91626 100.327 10.7738C101.246 12.4618 102.427 13.6647 103.509 14.1851C103.514 14.1886 103.517 14.1886 103.519 14.1921C103.599 14.2292 103.676 14.2715 103.757 14.3033C103.927 14.3862 104.105 14.4356 104.295 14.4497C104.366 14.4585 104.433 14.455 104.502 14.4585C104.57 14.455 104.636 14.4585 104.708 14.4497C104.897 14.4356 105.077 14.3862 105.244 14.3033C105.324 14.2715 105.403 14.2309 105.482 14.1921C105.486 14.1886 105.489 14.1886 105.493 14.1851C106.572 13.6647 107.756 12.4618 108.675 10.7738C110.233 7.91802 110.448 4.80831 109.157 3.83465Z" fill="#096A6A"/>
<path d="M120.157 3.83465C118.998 2.95976 117.02 4.10981 115.5 6.41873C113.979 4.10981 112.002 2.95976 110.843 3.83465C109.552 4.80831 109.767 7.91626 111.327 10.7738C112.246 12.4618 113.427 13.6647 114.509 14.1851C114.514 14.1886 114.517 14.1886 114.519 14.1921C114.599 14.2292 114.676 14.2715 114.757 14.3033C114.927 14.3862 115.105 14.4356 115.295 14.4497C115.366 14.4585 115.433 14.455 115.502 14.4585C115.57 14.455 115.636 14.4585 115.708 14.4497C115.897 14.4356 116.077 14.3862 116.244 14.3033C116.324 14.2715 116.403 14.2309 116.482 14.1921C116.486 14.1886 116.489 14.1886 116.493 14.1851C117.572 13.6647 118.756 12.4618 119.675 10.7738C121.233 7.91802 121.448 4.80831 120.157 3.83465Z" fill="#096A6A"/>
<path d="M131.157 3.83465C129.998 2.95976 128.02 4.10981 126.5 6.41873C124.979 4.10981 123.002 2.95976 121.843 3.83465C120.552 4.80831 120.767 7.91626 122.327 10.7738C123.246 12.4618 124.427 13.6647 125.509 14.1851C125.514 14.1886 125.517 14.1886 125.519 14.1921C125.599 14.2292 125.676 14.2715 125.757 14.3033C125.927 14.3862 126.105 14.4356 126.295 14.4497C126.366 14.4585 126.433 14.455 126.502 14.4585C126.57 14.455 126.636 14.4585 126.708 14.4497C126.897 14.4356 127.077 14.3862 127.244 14.3033C127.324 14.2715 127.403 14.2309 127.482 14.1921C127.486 14.1886 127.489 14.1886 127.493 14.1851C128.572 13.6647 129.756 12.4618 130.675 10.7738C132.233 7.91802 132.448 4.80831 131.157 3.83465Z" fill="#096A6A"/>
<path d="M142.157 3.83465C140.998 2.95976 139.02 4.10981 137.5 6.41873C135.979 4.10981 134.002 2.95976 132.843 3.83465C131.552 4.80831 131.767 7.91626 133.327 10.7738C134.246 12.4618 135.427 13.6647 136.509 14.1851C136.514 14.1886 136.517 14.1886 136.519 14.1921C136.599 14.2292 136.676 14.2715 136.757 14.3033C136.927 14.3862 137.105 14.4356 137.295 14.4497C137.366 14.4585 137.433 14.455 137.502 14.4585C137.57 14.455 137.636 14.4585 137.708 14.4497C137.897 14.4356 138.077 14.3862 138.244 14.3033C138.324 14.2715 138.403 14.2309 138.482 14.1921C138.486 14.1886 138.489 14.1886 138.493 14.1851C139.572 13.6647 140.756 12.4618 141.675 10.7738C143.233 7.91802 143.448 4.80831 142.157 3.83465Z" fill="#096A6A"/>
<path d="M153.157 3.83465C151.998 2.95976 150.02 4.10981 148.5 6.41873C146.979 4.10981 145.002 2.95976 143.843 3.83465C142.552 4.80831 142.767 7.91626 144.327 10.7738C145.246 12.4618 146.427 13.6647 147.509 14.1851C147.514 14.1886 147.517 14.1886 147.519 14.1921C147.599 14.2292 147.676 14.2715 147.757 14.3033C147.927 14.3862 148.105 14.4356 148.295 14.4497C148.366 14.4585 148.433 14.455 148.502 14.4585C148.57 14.455 148.636 14.4585 148.708 14.4497C148.897 14.4356 149.077 14.3862 149.244 14.3033C149.324 14.2715 149.403 14.2309 149.482 14.1921C149.486 14.1886 149.489 14.1886 149.493 14.1851C150.572 13.6647 151.756 12.4618 152.675 10.7738C154.233 7.91802 154.448 4.80831 153.157 3.83465Z" fill="#096A6A"/>
<path d="M164.157 3.83465C162.998 2.95976 161.02 4.10981 159.5 6.41873C157.979 4.10981 156.002 2.95976 154.843 3.83465C153.552 4.80831 153.767 7.91626 155.327 10.7738C156.246 12.4618 157.427 13.6647 158.509 14.1851C158.514 14.1886 158.517 14.1886 158.519 14.1921C158.599 14.2292 158.676 14.2715 158.757 14.3033C158.927 14.3862 159.105 14.4356 159.295 14.4497C159.366 14.4585 159.433 14.455 159.502 14.4585C159.57 14.455 159.636 14.4585 159.708 14.4497C159.897 14.4356 160.077 14.3862 160.244 14.3033C160.324 14.2715 160.403 14.2309 160.482 14.1921C160.486 14.1886 160.489 14.1886 160.493 14.1851C161.572 13.6647 162.756 12.4618 163.675 10.7738C165.233 7.91802 165.448 4.80831 164.157 3.83465Z" fill="#096A6A"/>
<path d="M175.157 3.83465C173.998 2.95976 172.02 4.10981 170.5 6.41873C168.979 4.10981 167.002 2.95976 165.843 3.83465C164.552 4.80831 164.767 7.91626 166.327 10.7738C167.246 12.4618 168.427 13.6647 169.509 14.1851C169.514 14.1886 169.517 14.1886 169.519 14.1921C169.599 14.2292 169.676 14.2715 169.757 14.3033C169.927 14.3862 170.105 14.4356 170.295 14.4497C170.366 14.4585 170.433 14.455 170.502 14.4585C170.57 14.455 170.636 14.4585 170.708 14.4497C170.897 14.4356 171.077 14.3862 171.244 14.3033C171.324 14.2715 171.403 14.2309 171.482 14.1921C171.486 14.1886 171.489 14.1886 171.493 14.1851C172.572 13.6647 173.756 12.4618 174.675 10.7738C176.233 7.91802 176.448 4.80831 175.157 3.83465Z" fill="#096A6A"/>
<path d="M186.157 3.83465C184.998 2.95976 183.02 4.10981 181.5 6.41873C179.979 4.10981 178.002 2.95976 176.843 3.83465C175.552 4.80831 175.767 7.91626 177.327 10.7738C178.246 12.4618 179.427 13.6647 180.509 14.1851C180.514 14.1886 180.517 14.1886 180.519 14.1921C180.599 14.2292 180.676 14.2715 180.757 14.3033C180.927 14.3862 181.105 14.4356 181.295 14.4497C181.366 14.4585 181.433 14.455 181.502 14.4585C181.57 14.455 181.636 14.4585 181.708 14.4497C181.897 14.4356 182.077 14.3862 182.244 14.3033C182.324 14.2715 182.403 14.2309 182.482 14.1921C182.486 14.1886 182.489 14.1886 182.493 14.1851C183.572 13.6647 184.756 12.4618 185.675 10.7738C187.233 7.91802 187.448 4.80831 186.157 3.83465Z" fill="#096A6A"/>
<path d="M198.08 3.36494C196.816 2.41052 194.659 3.66511 193 6.18394C191.341 3.66511 189.184 2.41052 187.92 3.36494C186.511 4.42712 186.746 7.8176 188.447 10.9349C189.45 12.7764 190.739 14.0887 191.919 14.6563C191.924 14.6602 191.928 14.6602 191.93 14.664C192.017 14.7044 192.101 14.7506 192.19 14.7853C192.375 14.8757 192.569 14.9296 192.777 14.945C192.854 14.9546 192.927 14.9507 193.002 14.9546C193.077 14.9507 193.148 14.9546 193.227 14.945C193.433 14.9296 193.629 14.8757 193.812 14.7853C193.899 14.7506 193.985 14.7064 194.072 14.664C194.076 14.6602 194.079 14.6602 194.083 14.6563C195.261 14.0887 196.552 12.7764 197.555 10.9349C199.254 7.81953 199.488 4.42712 198.08 3.36494Z" fill="#096A6A"/>
<path d="M209.157 3.83465C207.998 2.95976 206.02 4.10981 204.5 6.41873C202.979 4.10981 201.002 2.95976 199.843 3.83465C198.552 4.80831 198.767 7.91626 200.327 10.7738C201.246 12.4618 202.427 13.6647 203.509 14.1851C203.514 14.1886 203.517 14.1886 203.519 14.1921C203.599 14.2292 203.676 14.2715 203.757 14.3033C203.927 14.3862 204.105 14.4356 204.295 14.4497C204.366 14.4585 204.433 14.455 204.502 14.4585C204.57 14.455 204.636 14.4585 204.708 14.4497C204.897 14.4356 205.077 14.3862 205.244 14.3033C205.324 14.2715 205.403 14.2309 205.482 14.1921C205.486 14.1886 205.489 14.1886 205.493 14.1851C206.572 13.6647 207.756 12.4618 208.675 10.7738C210.233 7.91802 210.448 4.80831 209.157 3.83465Z" fill="#096A6A"/>
<path d="M220.157 3.83465C218.998 2.95976 217.02 4.10981 215.5 6.41873C213.979 4.10981 212.002 2.95976 210.843 3.83465C209.552 4.80831 209.767 7.91626 211.327 10.7738C212.246 12.4618 213.427 13.6647 214.509 14.1851C214.514 14.1886 214.517 14.1886 214.519 14.1921C214.599 14.2292 214.676 14.2715 214.757 14.3033C214.927 14.3862 215.105 14.4356 215.295 14.4497C215.366 14.4585 215.433 14.455 215.502 14.4585C215.57 14.455 215.636 14.4585 215.708 14.4497C215.897 14.4356 216.077 14.3862 216.244 14.3033C216.324 14.2715 216.403 14.2309 216.482 14.1921C216.486 14.1886 216.489 14.1886 216.493 14.1851C217.572 13.6647 218.756 12.4618 219.675 10.7738C221.233 7.91802 221.448 4.80831 220.157 3.83465Z" fill="#096A6A"/>
<path d="M231.157 3.83465C229.998 2.95976 228.02 4.10981 226.5 6.41873C224.979 4.10981 223.002 2.95976 221.843 3.83465C220.552 4.80831 220.767 7.91626 222.327 10.7738C223.246 12.4618 224.427 13.6647 225.509 14.1851C225.514 14.1886 225.517 14.1886 225.519 14.1921C225.599 14.2292 225.676 14.2715 225.757 14.3033C225.927 14.3862 226.105 14.4356 226.295 14.4497C226.366 14.4585 226.433 14.455 226.502 14.4585C226.57 14.455 226.636 14.4585 226.708 14.4497C226.897 14.4356 227.077 14.3862 227.244 14.3033C227.324 14.2715 227.403 14.2309 227.482 14.1921C227.486 14.1886 227.489 14.1886 227.493 14.1851C228.572 13.6647 229.756 12.4618 230.675 10.7738C232.233 7.91802 232.448 4.80831 231.157 3.83465Z" fill="#096A6A"/>
<path d="M242.157 3.83465C240.998 2.95976 239.02 4.10981 237.5 6.41873C235.979 4.10981 234.002 2.95976 232.843 3.83465C231.552 4.80831 231.767 7.91626 233.327 10.7738C234.246 12.4618 235.427 13.6647 236.509 14.1851C236.514 14.1886 236.517 14.1886 236.519 14.1921C236.599 14.2292 236.676 14.2715 236.757 14.3033C236.927 14.3862 237.105 14.4356 237.295 14.4497C237.366 14.4585 237.433 14.455 237.502 14.4585C237.57 14.455 237.636 14.4585 237.708 14.4497C237.897 14.4356 238.077 14.3862 238.244 14.3033C238.324 14.2715 238.403 14.2309 238.482 14.1921C238.486 14.1886 238.489 14.1886 238.493 14.1851C239.572 13.6647 240.756 12.4618 241.675 10.7738C243.233 7.91802 243.448 4.80831 242.157 3.83465Z" fill="#096A6A"/>
<path d="M253.157 3.83465C251.998 2.95976 250.02 4.10981 248.5 6.41873C246.979 4.10981 245.002 2.95976 243.843 3.83465C242.552 4.80831 242.767 7.91626 244.327 10.7738C245.246 12.4618 246.427 13.6647 247.509 14.1851C247.514 14.1886 247.517 14.1886 247.519 14.1921C247.599 14.2292 247.676 14.2715 247.757 14.3033C247.927 14.3862 248.105 14.4356 248.295 14.4497C248.366 14.4585 248.433 14.455 248.502 14.4585C248.57 14.455 248.636 14.4585 248.708 14.4497C248.897 14.4356 249.077 14.3862 249.244 14.3033C249.324 14.2715 249.403 14.2309 249.482 14.1921C249.486 14.1886 249.489 14.1886 249.493 14.1851C250.572 13.6647 251.756 12.4618 252.675 10.7738C254.233 7.91802 254.448 4.80831 253.157 3.83465Z" fill="#096A6A"/>
<path d="M264.157 3.83465C262.998 2.95976 261.02 4.10981 259.5 6.41873C257.979 4.10981 256.002 2.95976 254.843 3.83465C253.552 4.80831 253.767 7.91626 255.327 10.7738C256.246 12.4618 257.427 13.6647 258.509 14.1851C258.514 14.1886 258.517 14.1886 258.519 14.1921C258.599 14.2292 258.676 14.2715 258.757 14.3033C258.927 14.3862 259.105 14.4356 259.295 14.4497C259.366 14.4585 259.433 14.455 259.502 14.4585C259.57 14.455 259.636 14.4585 259.708 14.4497C259.897 14.4356 260.077 14.3862 260.244 14.3033C260.324 14.2715 260.403 14.2309 260.482 14.1921C260.486 14.1886 260.489 14.1886 260.493 14.1851C261.572 13.6647 262.756 12.4618 263.675 10.7738C265.233 7.91802 265.448 4.80831 264.157 3.83465Z" fill="#096A6A"/>
<path d="M275.157 3.83465C273.998 2.95976 272.02 4.10981 270.5 6.41873C268.979 4.10981 267.002 2.95976 265.843 3.83465C264.552 4.80831 264.767 7.91626 266.327 10.7738C267.246 12.4618 268.427 13.6647 269.509 14.1851C269.514 14.1886 269.517 14.1886 269.519 14.1921C269.599 14.2292 269.676 14.2715 269.757 14.3033C269.927 14.3862 270.105 14.4356 270.295 14.4497C270.366 14.4585 270.433 14.455 270.502 14.4585C270.57 14.455 270.636 14.4585 270.708 14.4497C270.897 14.4356 271.077 14.3862 271.244 14.3033C271.324 14.2715 271.403 14.2309 271.482 14.1921C271.486 14.1886 271.489 14.1886 271.493 14.1851C272.572 13.6647 273.756 12.4618 274.675 10.7738C276.233 7.91802 276.448 4.80831 275.157 3.83465Z" fill="#096A6A"/>
<path d="M286.157 3.83465C284.998 2.95976 283.02 4.10981 281.5 6.41873C279.979 4.10981 278.002 2.95976 276.843 3.83465C275.552 4.80831 275.767 7.91626 277.327 10.7738C278.246 12.4618 279.427 13.6647 280.509 14.1851C280.514 14.1886 280.517 14.1886 280.519 14.1921C280.599 14.2292 280.676 14.2715 280.757 14.3033C280.927 14.3862 281.105 14.4356 281.295 14.4497C281.366 14.4585 281.433 14.455 281.502 14.4585C281.57 14.455 281.636 14.4585 281.708 14.4497C281.897 14.4356 282.077 14.3862 282.244 14.3033C282.324 14.2715 282.403 14.2309 282.482 14.1921C282.486 14.1886 282.489 14.1886 282.493 14.1851C283.572 13.6647 284.756 12.4618 285.675 10.7738C287.233 7.91802 287.448 4.80831 286.157 3.83465Z" fill="#096A6A"/>
<path d="M297.157 3.83465C295.998 2.95976 294.02 4.10981 292.5 6.41873C290.979 4.10981 289.002 2.95976 287.843 3.83465C286.552 4.80831 286.767 7.91626 288.327 10.7738C289.246 12.4618 290.427 13.6647 291.509 14.1851C291.514 14.1886 291.517 14.1886 291.519 14.1921C291.599 14.2292 291.676 14.2715 291.757 14.3033C291.927 14.3862 292.105 14.4356 292.295 14.4497C292.366 14.4585 292.433 14.455 292.502 14.4585C292.57 14.455 292.636 14.4585 292.708 14.4497C292.897 14.4356 293.077 14.3862 293.244 14.3033C293.324 14.2715 293.403 14.2309 293.482 14.1921C293.486 14.1886 293.489 14.1886 293.493 14.1851C294.572 13.6647 295.756 12.4618 296.675 10.7738C298.233 7.91802 298.448 4.80831 297.157 3.83465Z" fill="#096A6A"/>
<path d="M308.157 3.83465C306.998 2.95976 305.02 4.10981 303.5 6.41873C301.979 4.10981 300.002 2.95976 298.843 3.83465C297.552 4.80831 297.767 7.91626 299.327 10.7738C300.246 12.4618 301.427 13.6647 302.509 14.1851C302.514 14.1886 302.517 14.1886 302.519 14.1921C302.599 14.2292 302.676 14.2715 302.757 14.3033C302.927 14.3862 303.105 14.4356 303.295 14.4497C303.366 14.4585 303.433 14.455 303.502 14.4585C303.57 14.455 303.636 14.4585 303.708 14.4497C303.897 14.4356 304.077 14.3862 304.244 14.3033C304.324 14.2715 304.403 14.2309 304.482 14.1921C304.486 14.1886 304.489 14.1886 304.493 14.1851C305.572 13.6647 306.756 12.4618 307.675 10.7738C309.233 7.91802 309.448 4.80831 308.157 3.83465Z" fill="#096A6A"/>
<path d="M319.157 3.83465C317.998 2.95976 316.02 4.10981 314.5 6.41873C312.979 4.10981 311.002 2.95976 309.843 3.83465C308.552 4.80831 308.767 7.91626 310.327 10.7738C311.246 12.4618 312.427 13.6647 313.509 14.1851C313.514 14.1886 313.517 14.1886 313.519 14.1921C313.599 14.2292 313.676 14.2715 313.757 14.3033C313.927 14.3862 314.105 14.4356 314.295 14.4497C314.366 14.4585 314.433 14.455 314.502 14.4585C314.57 14.455 314.636 14.4585 314.708 14.4497C314.897 14.4356 315.077 14.3862 315.244 14.3033C315.324 14.2715 315.403 14.2309 315.482 14.1921C315.486 14.1886 315.489 14.1886 315.493 14.1851C316.572 13.6647 317.756 12.4618 318.675 10.7738C320.233 7.91802 320.448 4.80831 319.157 3.83465Z" fill="#096A6A"/>
<path d="M330.157 3.83465C328.998 2.95976 327.02 4.10981 325.5 6.41873C323.979 4.10981 322.002 2.95976 320.843 3.83465C319.552 4.80831 319.767 7.91626 321.327 10.7738C322.246 12.4618 323.427 13.6647 324.509 14.1851C324.514 14.1886 324.517 14.1886 324.519 14.1921C324.599 14.2292 324.676 14.2715 324.757 14.3033C324.927 14.3862 325.105 14.4356 325.295 14.4497C325.366 14.4585 325.433 14.455 325.502 14.4585C325.57 14.455 325.636 14.4585 325.708 14.4497C325.897 14.4356 326.077 14.3862 326.244 14.3033C326.324 14.2715 326.403 14.2309 326.482 14.1921C326.486 14.1886 326.489 14.1886 326.493 14.1851C327.572 13.6647 328.756 12.4618 329.675 10.7738C331.233 7.91802 331.448 4.80831 330.157 3.83465Z" fill="#096A6A"/>
<path d="M341.157 3.83465C339.998 2.95976 338.02 4.10981 336.5 6.41873C334.979 4.10981 333.002 2.95976 331.843 3.83465C330.552 4.80831 330.767 7.91626 332.327 10.7738C333.246 12.4618 334.427 13.6647 335.509 14.1851C335.514 14.1886 335.517 14.1886 335.519 14.1921C335.599 14.2292 335.676 14.2715 335.757 14.3033C335.927 14.3862 336.105 14.4356 336.295 14.4497C336.366 14.4585 336.433 14.455 336.502 14.4585C336.57 14.455 336.636 14.4585 336.708 14.4497C336.897 14.4356 337.077 14.3862 337.244 14.3033C337.324 14.2715 337.403 14.2309 337.482 14.1921C337.486 14.1886 337.489 14.1886 337.493 14.1851C338.572 13.6647 339.756 12.4618 340.675 10.7738C342.233 7.91802 342.448 4.80831 341.157 3.83465Z" fill="#096A6A"/>
<path d="M352.157 3.83465C350.998 2.95976 349.02 4.10981 347.5 6.41873C345.979 4.10981 344.002 2.95976 342.843 3.83465C341.552 4.80831 341.767 7.91626 343.327 10.7738C344.246 12.4618 345.427 13.6647 346.509 14.1851C346.514 14.1886 346.517 14.1886 346.519 14.1921C346.599 14.2292 346.676 14.2715 346.757 14.3033C346.927 14.3862 347.105 14.4356 347.295 14.4497C347.366 14.4585 347.433 14.455 347.502 14.4585C347.57 14.455 347.636 14.4585 347.708 14.4497C347.897 14.4356 348.077 14.3862 348.244 14.3033C348.324 14.2715 348.403 14.2309 348.482 14.1921C348.486 14.1886 348.489 14.1886 348.493 14.1851C349.572 13.6647 350.756 12.4618 351.675 10.7738C353.233 7.91802 353.448 4.80831 352.157 3.83465Z" fill="#096A6A"/>
<path d="M363.157 3.83465C361.998 2.95976 360.02 4.10981 358.5 6.41873C356.979 4.10981 355.002 2.95976 353.843 3.83465C352.552 4.80831 352.767 7.91626 354.327 10.7738C355.246 12.4618 356.427 13.6647 357.509 14.1851C357.514 14.1886 357.517 14.1886 357.519 14.1921C357.599 14.2292 357.676 14.2715 357.757 14.3033C357.927 14.3862 358.105 14.4356 358.295 14.4497C358.366 14.4585 358.433 14.455 358.502 14.4585C358.57 14.455 358.636 14.4585 358.708 14.4497C358.897 14.4356 359.077 14.3862 359.244 14.3033C359.324 14.2715 359.403 14.2309 359.482 14.1921C359.486 14.1886 359.489 14.1886 359.493 14.1851C360.572 13.6647 361.756 12.4618 362.675 10.7738C364.233 7.91802 364.448 4.80831 363.157 3.83465Z" fill="#096A6A"/>
<path d="M374.157 3.83465C372.998 2.95976 371.02 4.10981 369.5 6.41873C367.979 4.10981 366.002 2.95976 364.843 3.83465C363.552 4.80831 363.767 7.91626 365.327 10.7738C366.246 12.4618 367.427 13.6647 368.509 14.1851C368.514 14.1886 368.517 14.1886 368.519 14.1921C368.599 14.2292 368.676 14.2715 368.757 14.3033C368.927 14.3862 369.105 14.4356 369.295 14.4497C369.366 14.4585 369.433 14.455 369.502 14.4585C369.57 14.455 369.636 14.4585 369.708 14.4497C369.897 14.4356 370.077 14.3862 370.244 14.3033C370.324 14.2715 370.403 14.2309 370.482 14.1921C370.486 14.1886 370.489 14.1886 370.493 14.1851C371.572 13.6647 372.756 12.4618 373.675 10.7738C375.233 7.91802 375.448 4.80831 374.157 3.83465Z" fill="#096A6A"/>
<path d="M385.157 3.83465C383.998 2.95976 382.02 4.10981 380.5 6.41873C378.979 4.10981 377.002 2.95976 375.843 3.83465C374.552 4.80831 374.767 7.91626 376.327 10.7738C377.246 12.4618 378.427 13.6647 379.509 14.1851C379.514 14.1886 379.517 14.1886 379.519 14.1921C379.599 14.2292 379.676 14.2715 379.757 14.3033C379.927 14.3862 380.105 14.4356 380.295 14.4497C380.366 14.4585 380.433 14.455 380.502 14.4585C380.57 14.455 380.636 14.4585 380.708 14.4497C380.897 14.4356 381.077 14.3862 381.244 14.3033C381.324 14.2715 381.403 14.2309 381.482 14.1921C381.486 14.1886 381.489 14.1886 381.493 14.1851C382.572 13.6647 383.756 12.4618 384.675 10.7738C386.233 7.91802 386.448 4.80831 385.157 3.83465Z" fill="#096A6A"/>
<path d="M396.157 3.83465C394.998 2.95976 393.02 4.10981 391.5 6.41873C389.979 4.10981 388.002 2.95976 386.843 3.83465C385.552 4.80831 385.767 7.91626 387.327 10.7738C388.246 12.4618 389.427 13.6647 390.509 14.1851C390.514 14.1886 390.517 14.1886 390.519 14.1921C390.599 14.2292 390.676 14.2715 390.757 14.3033C390.927 14.3862 391.105 14.4356 391.295 14.4497C391.366 14.4585 391.433 14.455 391.502 14.4585C391.57 14.455 391.636 14.4585 391.708 14.4497C391.897 14.4356 392.077 14.3862 392.244 14.3033C392.324 14.2715 392.403 14.2309 392.482 14.1921C392.486 14.1886 392.489 14.1886 392.493 14.1851C393.572 13.6647 394.756 12.4618 395.675 10.7738C397.233 7.91802 397.448 4.80831 396.157 3.83465Z" fill="#096A6A"/>
<path d="M407.157 3.83465C405.998 2.95976 404.02 4.10981 402.5 6.41873C400.979 4.10981 399.002 2.95976 397.843 3.83465C396.552 4.80831 396.767 7.91626 398.327 10.7738C399.246 12.4618 400.427 13.6647 401.509 14.1851C401.514 14.1886 401.517 14.1886 401.519 14.1921C401.599 14.2292 401.676 14.2715 401.757 14.3033C401.927 14.3862 402.105 14.4356 402.295 14.4497C402.366 14.4585 402.433 14.455 402.502 14.4585C402.57 14.455 402.636 14.4585 402.708 14.4497C402.897 14.4356 403.077 14.3862 403.244 14.3033C403.324 14.2715 403.403 14.2309 403.482 14.1921C403.486 14.1886 403.489 14.1886 403.493 14.1851C404.572 13.6647 405.756 12.4618 406.675 10.7738C408.233 7.91802 408.448 4.80831 407.157 3.83465Z" fill="#096A6A"/>
<path d="M418.157 3.83465C416.998 2.95976 415.02 4.10981 413.5 6.41873C411.979 4.10981 410.002 2.95976 408.843 3.83465C407.552 4.80831 407.767 7.91626 409.327 10.7738C410.246 12.4618 411.427 13.6647 412.509 14.1851C412.514 14.1886 412.517 14.1886 412.519 14.1921C412.599 14.2292 412.676 14.2715 412.757 14.3033C412.927 14.3862 413.105 14.4356 413.295 14.4497C413.366 14.4585 413.433 14.455 413.502 14.4585C413.57 14.455 413.636 14.4585 413.708 14.4497C413.897 14.4356 414.077 14.3862 414.244 14.3033C414.324 14.2715 414.403 14.2309 414.482 14.1921C414.486 14.1886 414.489 14.1886 414.493 14.1851C415.572 13.6647 416.756 12.4618 417.675 10.7738C419.233 7.91802 419.448 4.80831 418.157 3.83465Z" fill="#096A6A"/>
<path d="M429.157 3.83442C428 2.95949 426.023 4.10959 424.502 6.4186C422.98 4.10959 421.004 2.95949 419.843 3.83442C418.552 4.80812 418.767 7.91618 420.325 10.7738C421.246 12.4619 422.426 13.6649 423.507 14.1853C423.511 14.1888 423.516 14.1888 423.52 14.1923C423.599 14.2294 423.678 14.2717 423.758 14.3035C423.927 14.3864 424.105 14.4358 424.296 14.4499C424.364 14.4587 424.433 14.4551 424.502 14.4587C424.567 14.4551 424.634 14.4587 424.705 14.4499C424.895 14.4358 425.074 14.3864 425.245 14.3035C425.322 14.2717 425.402 14.2311 425.481 14.1923C425.485 14.1888 425.488 14.1888 425.492 14.1853C426.571 13.6649 427.755 12.4619 428.676 10.7738C430.231 7.91795 430.448 4.80812 429.157 3.83442Z" fill="#096A6A"/>
<path d="M440.157 3.83442C439 2.95949 437.023 4.10959 435.502 6.4186C433.98 4.10959 432.004 2.95949 430.843 3.83442C429.552 4.80812 429.767 7.91618 431.325 10.7738C432.246 12.4619 433.426 13.6649 434.507 14.1853C434.511 14.1888 434.516 14.1888 434.52 14.1923C434.599 14.2294 434.678 14.2717 434.758 14.3035C434.927 14.3864 435.105 14.4358 435.296 14.4499C435.364 14.4587 435.433 14.4551 435.502 14.4587C435.567 14.4551 435.634 14.4587 435.705 14.4499C435.895 14.4358 436.074 14.3864 436.245 14.3035C436.322 14.2717 436.402 14.2311 436.481 14.1923C436.485 14.1888 436.488 14.1888 436.492 14.1853C437.571 13.6649 438.755 12.4619 439.676 10.7738C441.231 7.91795 441.448 4.80812 440.157 3.83442Z" fill="#096A6A"/>
<path d="M451.157 3.83442C450 2.95949 448.023 4.10959 446.502 6.4186C444.98 4.10959 443.004 2.95949 441.843 3.83442C440.552 4.80812 440.767 7.91618 442.325 10.7738C443.246 12.4619 444.426 13.6649 445.507 14.1853C445.511 14.1888 445.516 14.1888 445.52 14.1923C445.599 14.2294 445.678 14.2717 445.758 14.3035C445.927 14.3864 446.105 14.4358 446.296 14.4499C446.364 14.4587 446.433 14.4551 446.502 14.4587C446.567 14.4551 446.634 14.4587 446.705 14.4499C446.895 14.4358 447.074 14.3864 447.245 14.3035C447.322 14.2717 447.402 14.2311 447.481 14.1923C447.485 14.1888 447.488 14.1888 447.492 14.1853C448.571 13.6649 449.755 12.4619 450.676 10.7738C452.231 7.91795 452.448 4.80812 451.157 3.83442Z" fill="#096A6A"/>
<path d="M462.157 3.83442C461 2.95949 459.023 4.10959 457.502 6.4186C455.98 4.10959 454.004 2.95949 452.843 3.83442C451.552 4.80812 451.767 7.91618 453.325 10.7738C454.246 12.4619 455.426 13.6649 456.507 14.1853C456.511 14.1888 456.516 14.1888 456.52 14.1923C456.599 14.2294 456.678 14.2717 456.758 14.3035C456.927 14.3864 457.105 14.4358 457.296 14.4499C457.364 14.4587 457.433 14.4551 457.502 14.4587C457.567 14.4551 457.634 14.4587 457.705 14.4499C457.895 14.4358 458.074 14.3864 458.245 14.3035C458.322 14.2717 458.402 14.2311 458.481 14.1923C458.485 14.1888 458.488 14.1888 458.492 14.1853C459.571 13.6649 460.755 12.4619 461.676 10.7738C463.231 7.91795 463.448 4.80812 462.157 3.83442Z" fill="#096A6A"/>
<path d="M473.157 3.83442C472 2.95949 470.023 4.10959 468.502 6.4186C466.98 4.10959 465.004 2.95949 463.843 3.83442C462.552 4.80812 462.767 7.91618 464.325 10.7738C465.246 12.4619 466.426 13.6649 467.507 14.1853C467.511 14.1888 467.516 14.1888 467.52 14.1923C467.599 14.2294 467.678 14.2717 467.758 14.3035C467.927 14.3864 468.105 14.4358 468.296 14.4499C468.364 14.4587 468.433 14.4551 468.502 14.4587C468.567 14.4551 468.634 14.4587 468.705 14.4499C468.895 14.4358 469.074 14.3864 469.245 14.3035C469.322 14.2717 469.402 14.2311 469.481 14.1923C469.485 14.1888 469.488 14.1888 469.492 14.1853C470.571 13.6649 471.755 12.4619 472.676 10.7738C474.231 7.91795 474.448 4.80812 473.157 3.83442Z" fill="#096A6A"/>
<path d="M484.157 3.83442C483 2.95949 481.023 4.10959 479.502 6.4186C477.98 4.10959 476.004 2.95949 474.843 3.83442C473.552 4.80812 473.767 7.91618 475.325 10.7738C476.246 12.4619 477.426 13.6649 478.507 14.1853C478.511 14.1888 478.516 14.1888 478.52 14.1923C478.599 14.2294 478.678 14.2717 478.758 14.3035C478.927 14.3864 479.105 14.4358 479.296 14.4499C479.364 14.4587 479.433 14.4551 479.502 14.4587C479.567 14.4551 479.634 14.4587 479.705 14.4499C479.895 14.4358 480.074 14.3864 480.245 14.3035C480.322 14.2717 480.402 14.2311 480.481 14.1923C480.485 14.1888 480.488 14.1888 480.492 14.1853C481.571 13.6649 482.755 12.4619 483.676 10.7738C485.231 7.91795 485.448 4.80812 484.157 3.83442Z" fill="#096A6A"/>
<path d="M495.157 3.83442C494 2.95949 492.023 4.10959 490.502 6.4186C488.98 4.10959 487.004 2.95949 485.843 3.83442C484.552 4.80812 484.767 7.91618 486.325 10.7738C487.246 12.4619 488.426 13.6649 489.507 14.1853C489.511 14.1888 489.516 14.1888 489.52 14.1923C489.599 14.2294 489.678 14.2717 489.758 14.3035C489.927 14.3864 490.105 14.4358 490.296 14.4499C490.364 14.4587 490.433 14.4551 490.502 14.4587C490.567 14.4551 490.634 14.4587 490.705 14.4499C490.895 14.4358 491.074 14.3864 491.245 14.3035C491.322 14.2717 491.402 14.2311 491.481 14.1923C491.485 14.1888 491.488 14.1888 491.492 14.1853C492.571 13.6649 493.755 12.4619 494.676 10.7738C496.231 7.91795 496.448 4.80812 495.157 3.83442Z" fill="#096A6A"/>
<path d="M506.157 3.83442C505 2.95949 503.023 4.10959 501.502 6.4186C499.98 4.10959 498.004 2.95949 496.843 3.83442C495.552 4.80812 495.767 7.91618 497.325 10.7738C498.246 12.4619 499.426 13.6649 500.507 14.1853C500.511 14.1888 500.516 14.1888 500.52 14.1923C500.599 14.2294 500.678 14.2717 500.758 14.3035C500.927 14.3864 501.105 14.4358 501.296 14.4499C501.364 14.4587 501.433 14.4551 501.502 14.4587C501.567 14.4551 501.634 14.4587 501.705 14.4499C501.895 14.4358 502.074 14.3864 502.245 14.3035C502.322 14.2717 502.402 14.2311 502.481 14.1923C502.485 14.1888 502.488 14.1888 502.492 14.1853C503.571 13.6649 504.755 12.4619 505.676 10.7738C507.231 7.91795 507.448 4.80812 506.157 3.83442Z" fill="#096A6A"/>
<path d="M517.157 3.83442C516 2.95949 514.023 4.10959 512.502 6.4186C510.98 4.10959 509.004 2.95949 507.843 3.83442C506.552 4.80812 506.767 7.91618 508.325 10.7738C509.246 12.4619 510.426 13.6649 511.507 14.1853C511.511 14.1888 511.516 14.1888 511.52 14.1923C511.599 14.2294 511.678 14.2717 511.758 14.3035C511.927 14.3864 512.105 14.4358 512.296 14.4499C512.364 14.4587 512.433 14.4551 512.502 14.4587C512.567 14.4551 512.634 14.4587 512.705 14.4499C512.895 14.4358 513.074 14.3864 513.245 14.3035C513.322 14.2717 513.402 14.2311 513.481 14.1923C513.485 14.1888 513.488 14.1888 513.492 14.1853C514.571 13.6649 515.755 12.4619 516.676 10.7738C518.231 7.91795 518.448 4.80812 517.157 3.83442Z" fill="#096A6A"/>
<path d="M528.157 3.83442C527 2.95949 525.023 4.10959 523.502 6.4186C521.98 4.10959 520.004 2.95949 518.843 3.83442C517.552 4.80812 517.767 7.91618 519.325 10.7738C520.246 12.4619 521.426 13.6649 522.507 14.1853C522.511 14.1888 522.516 14.1888 522.52 14.1923C522.599 14.2294 522.678 14.2717 522.758 14.3035C522.927 14.3864 523.105 14.4358 523.296 14.4499C523.364 14.4587 523.433 14.4551 523.502 14.4587C523.567 14.4551 523.634 14.4587 523.705 14.4499C523.895 14.4358 524.074 14.3864 524.245 14.3035C524.322 14.2717 524.402 14.2311 524.481 14.1923C524.485 14.1888 524.488 14.1888 524.492 14.1853C525.571 13.6649 526.755 12.4619 527.676 10.7738C529.231 7.91795 529.448 4.80812 528.157 3.83442Z" fill="#096A6A"/>
<path d="M539.157 3.83442C538 2.95949 536.023 4.10959 534.502 6.4186C532.98 4.10959 531.004 2.95949 529.843 3.83442C528.552 4.80812 528.767 7.91618 530.325 10.7738C531.246 12.4619 532.426 13.6649 533.507 14.1853C533.511 14.1888 533.516 14.1888 533.52 14.1923C533.599 14.2294 533.678 14.2717 533.758 14.3035C533.927 14.3864 534.105 14.4358 534.296 14.4499C534.364 14.4587 534.433 14.4551 534.502 14.4587C534.567 14.4551 534.634 14.4587 534.705 14.4499C534.895 14.4358 535.074 14.3864 535.245 14.3035C535.322 14.2717 535.402 14.2311 535.481 14.1923C535.485 14.1888 535.488 14.1888 535.492 14.1853C536.571 13.6649 537.755 12.4619 538.676 10.7738C540.231 7.91795 540.448 4.80812 539.157 3.83442Z" fill="#096A6A"/>
<path d="M550.157 3.83442C549 2.95949 547.023 4.10959 545.502 6.4186C543.98 4.10959 542.004 2.95949 540.843 3.83442C539.552 4.80812 539.767 7.91618 541.325 10.7738C542.246 12.4619 543.426 13.6649 544.507 14.1853C544.511 14.1888 544.516 14.1888 544.52 14.1923C544.599 14.2294 544.678 14.2717 544.758 14.3035C544.927 14.3864 545.105 14.4358 545.296 14.4499C545.364 14.4587 545.433 14.4551 545.502 14.4587C545.567 14.4551 545.634 14.4587 545.705 14.4499C545.895 14.4358 546.074 14.3864 546.245 14.3035C546.322 14.2717 546.402 14.2311 546.481 14.1923C546.485 14.1888 546.488 14.1888 546.492 14.1853C547.571 13.6649 548.755 12.4619 549.676 10.7738C551.231 7.91795 551.448 4.80812 550.157 3.83442Z" fill="#096A6A"/>
<path d="M561.157 3.83442C560 2.95949 558.023 4.10959 556.502 6.4186C554.98 4.10959 553.004 2.95949 551.843 3.83442C550.552 4.80812 550.767 7.91618 552.325 10.7738C553.246 12.4619 554.426 13.6649 555.507 14.1853C555.511 14.1888 555.516 14.1888 555.52 14.1923C555.599 14.2294 555.678 14.2717 555.758 14.3035C555.927 14.3864 556.105 14.4358 556.296 14.4499C556.364 14.4587 556.433 14.4551 556.502 14.4587C556.567 14.4551 556.634 14.4587 556.705 14.4499C556.895 14.4358 557.074 14.3864 557.245 14.3035C557.322 14.2717 557.402 14.2311 557.481 14.1923C557.485 14.1888 557.488 14.1888 557.492 14.1853C558.571 13.6649 559.755 12.4619 560.676 10.7738C562.231 7.91795 562.448 4.80812 561.157 3.83442Z" fill="#096A6A"/>
<path d="M572.157 3.83442C571 2.95949 569.023 4.10959 567.502 6.4186C565.98 4.10959 564.004 2.95949 562.843 3.83442C561.552 4.80812 561.767 7.91618 563.325 10.7738C564.246 12.4619 565.426 13.6649 566.507 14.1853C566.511 14.1888 566.516 14.1888 566.52 14.1923C566.599 14.2294 566.678 14.2717 566.758 14.3035C566.927 14.3864 567.105 14.4358 567.296 14.4499C567.364 14.4587 567.433 14.4551 567.502 14.4587C567.567 14.4551 567.634 14.4587 567.705 14.4499C567.895 14.4358 568.074 14.3864 568.245 14.3035C568.322 14.2717 568.402 14.2311 568.481 14.1923C568.485 14.1888 568.488 14.1888 568.492 14.1853C569.571 13.6649 570.755 12.4619 571.676 10.7738C573.231 7.91795 573.448 4.80812 572.157 3.83442Z" fill="#096A6A"/>
<path d="M583.157 3.83442C582 2.95949 580.023 4.10959 578.502 6.4186C576.98 4.10959 575.004 2.95949 573.843 3.83442C572.552 4.80812 572.767 7.91618 574.325 10.7738C575.246 12.4619 576.426 13.6649 577.507 14.1853C577.511 14.1888 577.516 14.1888 577.52 14.1923C577.599 14.2294 577.678 14.2717 577.758 14.3035C577.927 14.3864 578.105 14.4358 578.296 14.4499C578.364 14.4587 578.433 14.4551 578.502 14.4587C578.567 14.4551 578.634 14.4587 578.705 14.4499C578.895 14.4358 579.074 14.3864 579.245 14.3035C579.322 14.2717 579.402 14.2311 579.481 14.1923C579.485 14.1888 579.488 14.1888 579.492 14.1853C580.571 13.6649 581.755 12.4619 582.676 10.7738C584.231 7.91795 584.448 4.80812 583.157 3.83442Z" fill="#096A6A"/>
<path d="M594.157 3.83395C592.998 2.95897 591.022 4.10913 589.5 6.4183C587.979 4.10913 586.003 2.95897 584.843 3.83395C583.551 4.80771 583.768 7.91598 585.328 10.7738C586.245 12.462 587.427 13.6651 588.51 14.1855C588.514 14.189 588.517 14.189 588.521 14.1925C588.6 14.2296 588.679 14.2719 588.759 14.3037C588.928 14.3866 589.106 14.436 589.297 14.4501C589.367 14.4589 589.435 14.4554 589.502 14.4589C589.569 14.4554 589.636 14.4589 589.706 14.4501C589.895 14.436 590.075 14.3866 590.244 14.3037C590.324 14.2719 590.403 14.2313 590.482 14.1925C590.486 14.189 590.489 14.189 590.493 14.1855C591.573 13.6651 592.756 12.462 593.677 10.7738C595.231 7.91775 595.448 4.80771 594.157 3.83395Z" fill="#096A6A"/>
<path d="M605.156 3.83464C603.997 2.95978 602.022 4.10979 600.498 6.41865C598.979 4.10979 597.002 2.95978 595.843 3.83464C594.552 4.80828 594.769 7.91614 596.324 10.7736C597.247 12.4615 598.425 13.6645 599.506 14.1848C599.51 14.1883 599.515 14.1883 599.519 14.1918C599.598 14.2289 599.677 14.2713 599.757 14.303C599.926 14.3859 600.102 14.4353 600.295 14.4494C600.365 14.4582 600.432 14.4547 600.498 14.4582C600.566 14.4547 600.633 14.4582 600.704 14.4494C600.893 14.4353 601.073 14.3859 601.242 14.303C601.321 14.2713 601.401 14.2306 601.48 14.1918C601.484 14.1883 601.487 14.1883 601.492 14.1848C602.572 13.6645 603.754 12.4615 604.674 10.7736C606.232 7.9179 606.449 4.80828 605.156 3.83464Z" fill="#096A6A"/>
</svg>
